<?xml version="1.0" standalone="no"?>
<!DOCTYPE svg PUBLIC "-//W3C//DTD SVG 20010904//EN"
 "http://www.w3.org/TR/2001/REC-SVG-20010904/DTD/svg10.dtd">
<svg version="1.0" xmlns="http://www.w3.org/2000/svg"
 width="700.000000pt" height="700.000000pt" viewBox="0 0 700.000000 700.000000"
 preserveAspectRatio="xMidYMid meet">
<metadata>
Created by potrace 1.11, written by Peter Selinger 2001-2013
</metadata>
<g transform="translate(0.000000,700.000000) scale(0.100000,-0.100000)"
fill="#000000" stroke="none">
<path d="M0 3500 l0 -3500 3500 0 3500 0 0 3500 0 3500 -3500 0 -3500 0 0
-3500z m3171 1493 l328 -568 -334 -3 c-184 -1 -486 -1 -670 0 l-335 3 333 577
c195 338 336 572 341 567 5 -4 157 -264 337 -576z m1645 235 c-13 -24 -162
-281 -330 -573 -169 -291 -311 -530 -316 -530 -5 0 -155 252 -333 560 -177
308 -326 566 -330 573 -7 9 129 12 663 12 l671 0 -25 -42z m-3336 -1808 c113
-58 133 -218 38 -311 -23 -22 -34 -39 -26 -39 27 0 97 -70 108 -108 29 -107
-2 -185 -95 -235 -37 -21 -57 -22 -282 -25 l-243 -4 0 371 0 371 230 0 c210 0
234 -2 270 -20z m772 10 c57 -16 120 -70 153 -130 53 -99 34 -230 -45 -305
l-28 -27 79 -129 c43 -71 79 -131 79 -134 0 -3 -51 -5 -112 -5 l-113 0 -66
108 c-65 106 -66 107 -107 110 l-42 3 0 -110 0 -111 -100 0 -100 0 0 370 0
370 183 0 c100 0 199 -5 219 -10z m964 -355 c73 -198 134 -364 134 -368 0 -4
-48 -6 -106 -5 l-107 3 -20 68 -20 68 -101 -3 -101 -3 -19 -67 -20 -68 -109 0
c-60 0 -107 4 -105 9 2 5 64 171 138 370 l135 362 83 -3 83 -3 135 -360z m645
182 l144 -184 3 184 2 183 105 0 105 0 0 -370 0 -370 -83 0 -84 0 -144 179
-144 180 -3 -180 -2 -179 -100 0 -100 0 0 370 0 370 78 0 79 0 144 -183z
m1020 169 c161 -37 259 -161 267 -336 6 -148 -46 -260 -153 -331 -75 -50 -126
-59 -327 -59 l-178 0 0 370 0 370 168 0 c103 0 188 -5 223 -14z m975 -19 c28
-14 74 -51 102 -81 170 -187 117 -489 -106 -598 -60 -30 -75 -33 -152 -33 -73
1 -93 5 -143 30 -71 35 -140 107 -175 183 -23 50 -27 70 -27 157 0 91 3 106
31 165 46 96 127 169 224 201 14 5 63 7 110 5 68 -2 95 -8 136 -29z m-3920
-1312 c38 -129 71 -235 74 -235 3 0 29 85 59 188 30 103 61 208 69 235 l14 47
104 0 c57 0 104 -3 104 -7 0 -5 -59 -171 -132 -370 l-133 -363 -85 0 -85 0
-119 323 c-66 177 -128 343 -138 370 l-18 47 108 0 109 0 69 -235z m834 -135
l0 -370 -100 0 -100 0 0 370 0 370 100 0 100 0 0 -370z m731 339 c112 -53 176
-140 199 -270 21 -119 -18 -255 -96 -333 -22 -21 -68 -53 -104 -70 -65 -31
-66 -31 -257 -34 l-193 -4 0 372 0 372 198 -4 c189 -3 199 -4 253 -29z m924
-266 c61 -163 122 -330 137 -370 l27 -73 -108 0 -107 0 -24 75 -24 75 -97 0
-97 0 -23 -75 -22 -75 -108 0 -109 0 18 48 c10 26 72 192 137 369 l120 323 85
0 85 0 110 -297z m565 17 l0 -280 170 0 170 0 0 -90 0 -90 -270 0 -270 0 0
370 0 370 100 0 100 0 0 -280z"/>
<path d="M1184 3257 c-3 -8 -4 -34 -2 -58 l3 -44 74 -3 c83 -3 121 13 121 51
0 48 -22 61 -109 65 -65 3 -82 1 -87 -11z"/>
<path d="M1180 2930 l0 -60 91 0 c111 0 129 8 129 58 0 56 -11 62 -122 62
l-98 0 0 -60z"/>
<path d="M2050 3180 l0 -80 68 0 c37 0 72 4 78 8 37 24 45 101 14 132 -16 16
-33 20 -90 20 l-70 0 0 -80z"/>
<path d="M2966 3112 c-16 -59 -31 -113 -34 -119 -3 -10 13 -13 62 -13 36 0 66
3 66 8 -1 11 -59 224 -63 228 -1 2 -16 -45 -31 -104z"/>
<path d="M4700 3065 l0 -198 64 5 c126 11 181 78 174 213 -6 117 -54 167 -168
173 l-70 4 0 -197z"/>
<path d="M5632 3240 c-52 -32 -75 -95 -70 -191 3 -86 19 -116 78 -156 66 -45
145 -17 188 67 31 60 28 177 -7 234 -41 66 -123 86 -189 46z"/>
<path d="M3258 2154 c-5 -4 -8 -92 -8 -196 l0 -188 61 0 c105 0 158 40 180
137 22 94 -10 186 -76 224 -33 19 -145 36 -157 23z"/>
<path d="M4197 2001 c-15 -54 -30 -106 -33 -115 -5 -14 3 -16 60 -16 42 0 66
4 66 11 0 23 -54 219 -60 219 -4 0 -19 -44 -33 -99z"/>
</g>
</svg>
